<svg xmlns="http://www.w3.org/2000/svg" width="1840" height="1120" viewBox="0 0 1840 1120" role="img" aria-labelledby="title desc">
<title id="title">Timeline of REACT data assets</title>
<desc id="desc">Horizontal timeline showing REACT-1, REACT-2, clinical, Long COVID, and follow-up data collection windows from 2020 to 2026.</desc>
<defs>
<marker id="arrow" markerWidth="12" markerHeight="12" refX="10" refY="6" orient="auto" markerUnits="strokeWidth"><path d="M2,2 L10,6 L2,10 z" fill="#5f6c7b"/></marker>
<filter id="shadow" x="-10%" y="-20%" width="130%" height="150%"><feDropShadow dx="0" dy="4" stdDeviation="5" flood-color="#0f172a" flood-opacity="0.11"/></filter>
</defs>
<style>
text { font-family: Inter, ui-sans-serif, system-ui, -apple-system, BlinkMacSystemFont, "Segoe UI", sans-serif; }
.axis { font-size: 16px; fill: #52616f; }
.small { font-size: 14px; fill: #52616f; }
.tiny { font-size: 12px; fill: #6b7785; }
</style>
<rect x="28.0" y="28.0" width="1784.0" height="1064.0" rx="28.0" fill="#fbfcfd" opacity="1.000" stroke="#d9e2ec" stroke-width="1" />
<text x="70.0" y="88.0" font-size="32" font-weight="750" fill="#17212b" text-anchor="start" >REACT Data Assets: Fieldwork Timeline and Cohort Relationships</text>
<text x="70.0" y="130.0" font-size="18" font-weight="400" fill="#52616f" text-anchor="start" >Bars show data collection windows; circles show approximate cohort/sample size on a square-root scale.</text>
<text x="70.0" y="160.0" font-size="18" font-weight="400" fill="#52616f" text-anchor="start" >REACT-1 and REACT-2 are subcomponents of the original respondent base; follow-up studies are recontacted subsets.</text>
<rect x="524.0" y="197.0" width="1202.0" height="581.0" rx="18.0" fill="#ffffff" opacity="1.000" stroke="#e6edf3" stroke-width="1" filter="url(#shadow)"/>
<path d="M540.0,221.0 L540.0,774.0" fill="none" stroke="#d9e2ec" stroke-width="1" opacity="1.000" />
<text x="540.0" y="803.0" font-size="16" font-weight="650" fill="#52616f" text-anchor="middle" >2020</text>
<path d="M707.5,221.0 L707.5,774.0" fill="none" stroke="#d9e2ec" stroke-width="1" opacity="1.000" />
<text x="707.5" y="803.0" font-size="16" font-weight="650" fill="#52616f" text-anchor="middle" >2021</text>
<path d="M874.6,221.0 L874.6,774.0" fill="none" stroke="#d9e2ec" stroke-width="1" opacity="1.000" />
<text x="874.6" y="803.0" font-size="16" font-weight="650" fill="#52616f" text-anchor="middle" >2022</text>
<path d="M1041.7,221.0 L1041.7,774.0" fill="none" stroke="#d9e2ec" stroke-width="1" opacity="1.000" />
<text x="1041.7" y="803.0" font-size="16" font-weight="650" fill="#52616f" text-anchor="middle" >2023</text>
<path d="M1208.8,221.0 L1208.8,774.0" fill="none" stroke="#d9e2ec" stroke-width="1" opacity="1.000" />
<text x="1208.8" y="803.0" font-size="16" font-weight="650" fill="#52616f" text-anchor="middle" >2024</text>
<path d="M1376.3,221.0 L1376.3,774.0" fill="none" stroke="#d9e2ec" stroke-width="1" opacity="1.000" />
<text x="1376.3" y="803.0" font-size="16" font-weight="650" fill="#52616f" text-anchor="middle" >2025</text>
<path d="M1543.4,221.0 L1543.4,774.0" fill="none" stroke="#d9e2ec" stroke-width="1" opacity="1.000" />
<text x="1543.4" y="803.0" font-size="16" font-weight="650" fill="#52616f" text-anchor="middle" >2026</text>
<path d="M540.0,762.0 L1710.0,762.0" fill="none" stroke="#9fb3c8" stroke-width="1.5" opacity="1.000" />
<rect x="581.7" y="213.0" width="333.7" height="549.0" rx="10.0" fill="#f1f5f9" opacity="0.720" />
<text x="748.7" y="237.0" font-size="14" font-weight="650" fill="#6b7785" text-anchor="middle" >Original REACT pandemic surveillance period</text>
<path d="M560.0,320.0 L544.0,320.0 L544.0,469.0 L560.0,469.0" fill="none" stroke="#5f6c7b" stroke-width="2.0" opacity="0.700" />
<text x="570.0" y="388.5" font-size="13" font-weight="750" fill="#344054" text-anchor="start" >REACT-1/2 subcomponents</text>
<text x="570.0" y="406.5" font-size="12" font-weight="500" fill="#52616f" text-anchor="start" >within the parent respondent base</text>
<path d="M532.0,255.0 L1718.0,255.0" fill="none" stroke="#edf2f7" stroke-width="1" opacity="1.000" />
<rect x="581.7" y="240.0" width="333.7" height="38.0" rx="9.0" fill="#264653" opacity="1.000" />
<circle cx="977.4" cy="255.0" r="44.0" fill="#264653" opacity="0.18"/>
<circle cx="977.4" cy="255.0" r="18.5" fill="#264653" opacity="0.78"/>
<text x="70.0" y="245.0" font-size="18" font-weight="720" fill="#17212b" text-anchor="start" >Original REACT-1/2 respondent base</text>
<text x="70.0" y="272.0" font-size="14" font-weight="600" fill="#264653" text-anchor="start" >Parent cohort | N~3.5M</text>
<text x="595.7" y="261.0" font-size="14" font-weight="700" fill="#ffffff" text-anchor="start" >Apr 2020 to Mar 2022</text>
<path d="M532.0,348.0 L1718.0,348.0" fill="none" stroke="#edf2f7" stroke-width="1" opacity="1.000" />
<rect x="595.4" y="333.0" width="320.0" height="30.0" rx="9.0" fill="#118ab2" opacity="0.880" />
<circle cx="969.1" cy="348.0" r="35.7" fill="#118ab2" opacity="0.18"/>
<circle cx="969.1" cy="348.0" r="15.0" fill="#118ab2" opacity="0.78"/>
<text x="70.0" y="338.0" font-size="18" font-weight="650" fill="#17212b" text-anchor="start" >REACT-1 PCR swab surveillance</text>
<text x="70.0" y="365.0" font-size="14" font-weight="600" fill="#118ab2" text-anchor="start" >Subcomponent of original base | almost 2.0M tested</text>
<text x="609.4" y="354.0" font-size="14" font-weight="700" fill="#ffffff" text-anchor="start" >May 2020 to Mar 2022</text>
<path d="M532.0,441.0 L1718.0,441.0" fill="none" stroke="#edf2f7" stroke-width="1" opacity="1.000" />
<rect x="609.6" y="426.0" width="166.6" height="30.0" rx="9.0" fill="#ef476f" opacity="0.880" />
<circle cx="821.4" cy="441.0" r="27.2" fill="#ef476f" opacity="0.18"/>
<circle cx="821.4" cy="441.0" r="11.4" fill="#ef476f" opacity="0.78"/>
<text x="70.0" y="431.0" font-size="18" font-weight="650" fill="#17212b" text-anchor="start" >REACT-2 antibody programme</text>
<text x="70.0" y="458.0" font-size="14" font-weight="600" fill="#ef476f" text-anchor="start" >Subcomponent of original base | &gt;900k participants</text>
<text x="613.6" y="417.0" font-size="14" font-weight="700" fill="#ef476f" text-anchor="start" >Jun 2020 to May 2021</text>
<path d="M532.0,534.0 L1718.0,534.0" fill="none" stroke="#edf2f7" stroke-width="1" opacity="1.000" />
<rect x="709.8" y="515.0" width="154.3" height="38.0" rx="9.0" fill="#06a77d" opacity="0.100" />
<rect x="709.8" y="510.0" width="131.8" height="8.0" rx="4.0" fill="#636363" opacity="0.860" />
<rect x="710.3" y="522.0" width="118.1" height="8.0" rx="4.0" fill="#7ea5f8" opacity="0.860" />
<rect x="713.0" y="534.0" width="125.9" height="8.0" rx="4.0" fill="#f2a323" opacity="0.860" />
<rect x="838.0" y="546.0" width="26.1" height="8.0" rx="4.0" fill="#c94b4b" opacity="0.860" />
<circle cx="894.0" cy="534.0" r="11.9" fill="#06a77d" opacity="0.18"/>
<circle cx="894.0" cy="534.0" r="6.0" fill="#06a77d" opacity="0.78"/>
<text x="70.0" y="524.0" font-size="18" font-weight="650" fill="#17212b" text-anchor="start" >REACT clinical / GE-LC cohort</text>
<text x="70.0" y="551.0" font-size="14" font-weight="600" fill="#06a77d" text-anchor="start" >Deep phenotyping subset | 10k-10.6k clinics</text>
<text x="713.8" y="510.0" font-size="14" font-weight="700" fill="#06a77d" text-anchor="start" >06 Jan 2021 to 09 Dec 2021</text>
<text x="901.6" y="508.0" font-size="13" font-weight="750" fill="#344054" text-anchor="start" >Clinical cohort phase detail</text>
<rect x="901.6" y="517.0" width="12.0" height="8.0" rx="2.0" fill="#636363" opacity="0.860" />
<text x="919.6" y="525.0" font-size="12" font-weight="500" fill="#52616f" text-anchor="start" >Invitation: 06 Jan to 21 Oct 2021</text>
<rect x="901.6" y="534.0" width="12.0" height="8.0" rx="2.0" fill="#7ea5f8" opacity="0.860" />
<text x="919.6" y="542.0" font-size="12" font-weight="500" fill="#52616f" text-anchor="start" >Registration: 07 Jan to 22 Sep 2021</text>
<rect x="901.6" y="551.0" width="12.0" height="8.0" rx="2.0" fill="#f2a323" opacity="0.860" />
<text x="919.6" y="559.0" font-size="12" font-weight="500" fill="#52616f" text-anchor="start" >Baseline clinic: 13 Jan to 15 Oct 2021</text>
<rect x="901.6" y="568.0" width="12.0" height="8.0" rx="2.0" fill="#c94b4b" opacity="0.860" />
<text x="919.6" y="576.0" font-size="12" font-weight="500" fill="#52616f" text-anchor="start" >Follow-up clinic: 13 Oct to 09 Dec 2021</text>
<path d="M691.8,275.0 C655.8,325.0 655.8,488.0 691.8,514.0" fill="none" stroke="#5f6c7b" stroke-width="1.4" opacity="0.420" stroke-dasharray="4 5" marker-end="url(#arrow)"/>
<path d="M532.0,627.0 L1718.0,627.0" fill="none" stroke="#edf2f7" stroke-width="1" opacity="1.000" />
<rect x="971.7" y="612.0" width="55.8" height="30.0" rx="9.0" fill="#f4a261" opacity="0.880" />
<circle cx="1071.8" cy="627.0" r="26.3" fill="#f4a261" opacity="0.18"/>
<circle cx="1071.8" cy="627.0" r="11.0" fill="#f4a261" opacity="0.78"/>
<text x="70.0" y="617.0" font-size="18" font-weight="650" fill="#17212b" text-anchor="start" >REACT Long COVID survey</text>
<text x="70.0" y="644.0" font-size="14" font-weight="600" fill="#f4a261" text-anchor="start" >Follow-up subset | 800k invited</text>
<text x="975.7" y="603.0" font-size="14" font-weight="700" fill="#f4a261" text-anchor="start" >Aug 2022 to Dec 2022</text>
<path d="M953.7,275.0 C917.7,325.0 917.7,581.0 953.7,607.0" fill="none" stroke="#5f6c7b" stroke-width="1.4" opacity="0.420" stroke-dasharray="4 5" marker-end="url(#arrow)"/>
<path d="M532.0,720.0 L1718.0,720.0" fill="none" stroke="#edf2f7" stroke-width="1" opacity="1.000" />
<rect x="1320.5" y="705.0" width="222.5" height="30.0" rx="9.0" fill="#7b2cbf" opacity="0.880" />
<circle cx="1587.2" cy="720.0" r="26.3" fill="#7b2cbf" opacity="0.18"/>
<circle cx="1587.2" cy="720.0" r="11.0" fill="#7b2cbf" opacity="0.78"/>
<text x="70.0" y="710.0" font-size="18" font-weight="650" fill="#17212b" text-anchor="start" >REACT follow-up / new cohort 2024-2025</text>
<text x="70.0" y="737.0" font-size="14" font-weight="600" fill="#7b2cbf" text-anchor="start" >Follow-up subset | 800k subset</text>
<text x="1324.5" y="696.0" font-size="14" font-weight="700" fill="#7b2cbf" text-anchor="start" >Sep 2024 to Dec 2025</text>
<path d="M1302.5,275.0 C1266.5,325.0 1266.5,674.0 1302.5,700.0" fill="none" stroke="#5f6c7b" stroke-width="1.4" opacity="0.420" stroke-dasharray="4 5" marker-end="url(#arrow)"/>
<text x="70.0" y="820.0" font-size="20" font-weight="750" fill="#17212b" text-anchor="start" >Linkage and consent notes</text>
<circle cx="78.0" cy="849.0" r="5" fill="#2a9d8f"/>
<text x="94.0" y="854.0" font-size="15" font-weight="450" fill="#344054" text-anchor="start" >Project note: around 80% of original respondents have linked NHS hospitalisation and GP data.</text>
<circle cx="78.0" cy="892.0" r="5" fill="#2a9d8f"/>
<text x="94.0" y="897.0" font-size="15" font-weight="450" fill="#344054" text-anchor="start" >Published 2022 follow-up frame: 2,494,309 of 3,099,386 adults (80.5%) consented to both</text>
<text x="94.0" y="916.0" font-size="15" font-weight="450" fill="#344054" text-anchor="start" >recontact and routine health-record linkage.</text>
<circle cx="78.0" cy="954.0" r="5" fill="#2a9d8f"/>
<text x="94.0" y="959.0" font-size="15" font-weight="450" fill="#344054" text-anchor="start" >Clinical cohort participants consented for linkage; follow-up studies should be treated as</text>
<text x="94.0" y="978.0" font-size="15" font-weight="450" fill="#344054" text-anchor="start" >linkable where the participant consent covers linkage.</text>
<text x="1770.0" y="1072.0" font-size="12" font-weight="500" fill="#8294a8" text-anchor="end" >Generated from data/react_datasets_timeline.csv and data/react_clinical_cohort_phases.csv</text>
</svg>